<?xml version="1.0" encoding="utf-8"?>
<!-- Generator: Adobe Illustrator 26.5.0, SVG Export Plug-In . SVG Version: 6.00 Build 0)  -->
<svg version="1.1" id="Capa_1" xmlns="http://www.w3.org/2000/svg" xmlns:xlink="http://www.w3.org/1999/xlink" x="0px" y="0px"
	 viewBox="0 0 416.5 109.5" style="enable-background:new 0 0 416.5 109.5;" xml:space="preserve">
<style type="text/css">
	.st0{fill:#222222;}
	.st1{fill:#000078;}
	.st2{fill:#73EDFF;}
</style>
<g>
	<path class="st0" d="M123.3,62.5V30.3h8.2v32.1c0,7.2,5,12.4,11.4,12.4s11.4-5.2,11.4-12.4V30.3h8.2v32.1
		c0,11.9-8.6,20.6-19.6,20.6C131.9,83,123.3,74.3,123.3,62.5z"/>
	<path class="st0" d="M169.4,56.3c0-14.8,12-26.8,26.7-26.8c14.7,0,26.8,12.1,26.8,26.8c0,14.6-12.1,26.6-26.8,26.6
		C181.4,82.9,169.4,70.9,169.4,56.3z M214.7,56.2c0-10.2-8.4-18.6-18.6-18.6c-10.2,0-18.5,8.3-18.5,18.6c0,10.2,8.3,18.5,18.5,18.5
		C206.3,74.7,214.7,66.4,214.7,56.2z"/>
	<path class="st0" d="M227.9,56.3c0-14.8,12-26.8,26.7-26.8c14.7,0,26.8,12.1,26.8,26.8c0,14.6-12.1,26.6-26.8,26.6
		C239.9,82.9,227.9,70.9,227.9,56.3z M273.2,56.2c0-10.2-8.4-18.6-18.6-18.6c-10.2,0-18.5,8.3-18.5,18.6c0,10.2,8.3,18.5,18.5,18.5
		C264.8,74.7,273.2,66.4,273.2,56.2z"/>
	<path class="st0" d="M308.7,38.4h-23.5v-8.1h36.4L298.2,74h23.4v8.1h-36.4L308.7,38.4z"/>
	<path class="st0" d="M337.7,38.3v13.3h19.6v8.1h-19.6V74h22.7v8.1h-30.8V30.3h30.8v8H337.7z"/>
	<path class="st0" d="M397.3,82.1l-13.9-20H377v20h-8.1l0-51.7h16.1c9.6,0,17.5,7.4,17.5,16.6c0,6.7-4.3,12.5-10.2,14.4l15.1,20.7
		H397.3z M385.1,55.3c4.9,0,9-3.9,9-8.5c0-4.8-4.1-8.4-9-8.4H377v16.9H385.1z"/>
</g>
<g>
	<rect x="8.3" y="77.2" class="st1" width="29.4" height="16"/>
	<rect x="43.3" y="77.2" class="st2" width="29.4" height="16"/>
	<rect x="77.4" y="77.2" class="st2" width="29.4" height="16"/>
	<rect x="8.3" y="56.2" class="st1" width="29.4" height="16"/>
	<rect x="43.3" y="56.2" class="st2" width="29.4" height="16"/>
	<rect x="77.4" y="56.2" class="st2" width="29.4" height="16"/>
	<rect x="43.3" y="35.3" class="st1" width="29.4" height="16"/>
	<rect x="77.4" y="35.3" class="st2" width="29.4" height="16"/>
	<rect x="43.7" y="14.3" class="st1" width="29.4" height="16"/>
</g>
</svg>
